<svg width="65" height="27" viewBox="0 0 65 27" fill="none" xmlns="http://www.w3.org/2000/svg">
<path d="M0.895031 20C0.705813 20 0.544978 19.9338 0.412526 19.8013C0.280073 19.6689 0.213847 19.508 0.213847 19.3188V0.813323C0.213847 0.624105 0.280073 0.463271 0.412526 0.330819C0.544978 0.198366 0.705813 0.132139 0.895031 0.132139H3.53462C3.72384 0.132139 3.88467 0.198366 4.01712 0.330819C4.14958 0.463271 4.2158 0.624105 4.2158 0.813323V16.6225H13.2131C13.4212 16.6225 13.5915 16.6887 13.724 16.8211C13.8564 16.9536 13.9227 17.1239 13.9227 17.332V19.3188C13.9227 19.508 13.8564 19.6689 13.724 19.8013C13.5915 19.9338 13.4212 20 13.2131 20H0.895031ZM22.6437 20.2838C21.1299 20.2838 19.8527 20.0189 18.812 19.4891C17.7903 18.9593 17.005 18.2119 16.4563 17.2469C15.9265 16.2819 15.6237 15.156 15.548 13.8693C15.5291 13.5288 15.5196 13.1125 15.5196 12.6205C15.5196 12.1285 15.5291 11.7123 15.548 11.3717C15.6237 10.0661 15.9359 8.94022 16.4846 7.99414C17.0523 7.02913 17.847 6.28172 18.8688 5.75191C19.9095 5.2221 21.1678 4.95719 22.6437 4.95719C24.1196 4.95719 25.3684 5.2221 26.3902 5.75191C27.4309 6.28172 28.2256 7.02913 28.7743 7.99414C29.342 8.94022 29.6637 10.0661 29.7393 11.3717C29.7583 11.7123 29.7677 12.1285 29.7677 12.6205C29.7677 13.1125 29.7583 13.5288 29.7393 13.8693C29.6637 15.156 29.3515 16.2819 28.8027 17.2469C28.2729 18.2119 27.4877 18.9593 26.447 19.4891C25.4252 20.0189 24.1574 20.2838 22.6437 20.2838ZM22.6437 17.4739C23.6465 17.4739 24.4223 17.1617 24.9711 16.5373C25.5198 15.894 25.8225 14.9573 25.8793 13.7274C25.8982 13.4436 25.9077 13.0746 25.9077 12.6205C25.9077 12.1664 25.8982 11.7974 25.8793 11.5136C25.8225 10.3026 25.5198 9.37543 24.9711 8.73209C24.4223 8.08874 23.6465 7.76707 22.6437 7.76707C21.6408 7.76707 20.865 8.08874 20.3163 8.73209C19.7676 9.37543 19.4648 10.3026 19.4081 11.5136C19.3891 11.7974 19.3797 12.1664 19.3797 12.6205C19.3797 13.0746 19.3891 13.4436 19.4081 13.7274C19.4648 14.9573 19.7676 15.894 20.3163 16.5373C20.865 17.1617 21.6408 17.4739 22.6437 17.4739ZM39.5824 26.2442C38.2011 26.2442 37.0658 26.0644 36.1764 25.7049C35.2871 25.3454 34.587 24.9102 34.0761 24.3993C33.5652 23.8884 33.1963 23.3775 32.9692 22.8666C32.7611 22.3747 32.6475 21.9868 32.6286 21.703C32.6097 21.5137 32.6665 21.3434 32.7989 21.1921C32.9503 21.0596 33.1206 20.9934 33.3098 20.9934H35.7791C35.9683 20.9934 36.1197 21.0312 36.2332 21.1069C36.3467 21.2015 36.4414 21.3624 36.517 21.5894C36.6306 21.8354 36.7819 22.1003 36.9712 22.3841C37.1604 22.668 37.4442 22.9045 37.8226 23.0937C38.22 23.3018 38.7593 23.4059 39.4405 23.4059C40.1595 23.4059 40.765 23.3018 41.2569 23.0937C41.7489 22.8856 42.1179 22.5355 42.3639 22.0436C42.6288 21.5516 42.7612 20.8704 42.7612 20V18.07C42.3071 18.6187 41.7205 19.0634 41.0015 19.404C40.3014 19.7446 39.431 19.9149 38.3903 19.9149C37.3685 19.9149 36.4887 19.754 35.7507 19.4323C35.0128 19.0918 34.3978 18.6282 33.9058 18.0416C33.4139 17.4361 33.0354 16.7265 32.7705 15.9129C32.5245 15.0993 32.3826 14.2005 32.3448 13.2165C32.3259 12.7057 32.3259 12.1948 32.3448 11.6839C32.3826 10.7378 32.5245 9.85793 32.7705 9.04429C33.0165 8.23066 33.3855 7.52109 33.8775 6.91559C34.3883 6.29118 35.0128 5.80867 35.7507 5.46808C36.4887 5.12749 37.3685 4.95719 38.3903 4.95719C39.4688 4.95719 40.3771 5.16533 41.115 5.58161C41.853 5.97897 42.4585 6.48039 42.9315 7.08589V5.95058C42.9315 5.74244 42.9977 5.57215 43.1302 5.4397C43.2626 5.30724 43.4235 5.24102 43.6127 5.24102H45.9117C46.1009 5.24102 46.2617 5.30724 46.3942 5.4397C46.5267 5.57215 46.5929 5.74244 46.5929 5.95058L46.6213 19.631C46.6213 20.9934 46.3658 22.1665 45.8549 23.1505C45.344 24.1344 44.5683 24.8913 43.5276 25.4211C42.5058 25.9698 41.1907 26.2442 39.5824 26.2442ZM39.4405 16.9063C40.2162 16.9063 40.8407 16.736 41.3137 16.3954C41.7868 16.0548 42.1368 15.6101 42.3639 15.0614C42.5909 14.5127 42.7234 13.9545 42.7612 13.3868C42.7801 13.1409 42.7896 12.8286 42.7896 12.4502C42.7896 12.0718 42.7801 11.769 42.7612 11.542C42.7234 10.9554 42.5909 10.3972 42.3639 9.86739C42.1368 9.31866 41.7868 8.874 41.3137 8.53341C40.8407 8.17389 40.2162 7.99414 39.4405 7.99414C38.6647 7.99414 38.0402 8.17389 37.5672 8.53341C37.0942 8.874 36.7536 9.32812 36.5454 9.89577C36.3562 10.4634 36.2427 11.0878 36.2048 11.769C36.167 12.2232 36.167 12.6867 36.2048 13.1598C36.2427 13.822 36.3562 14.4465 36.5454 15.033C36.7536 15.6007 37.0942 16.0548 37.5672 16.3954C38.0402 16.736 38.6647 16.9063 39.4405 16.9063ZM56.9302 20.2838C55.4164 20.2838 54.1392 20.0189 53.0985 19.4891C52.0767 18.9593 51.2915 18.2119 50.7427 17.2469C50.2129 16.2819 49.9102 15.156 49.8345 13.8693C49.8156 13.5288 49.8061 13.1125 49.8061 12.6205C49.8061 12.1285 49.8156 11.7123 49.8345 11.3717C49.9102 10.0661 50.2224 8.94022 50.7711 7.99414C51.3388 7.02913 52.1335 6.28172 53.1553 5.75191C54.196 5.2221 55.4543 4.95719 56.9302 4.95719C58.406 4.95719 59.6549 5.2221 60.6767 5.75191C61.7174 6.28172 62.5121 7.02913 63.0608 7.99414C63.6285 8.94022 63.9501 10.0661 64.0258 11.3717C64.0447 11.7123 64.0542 12.1285 64.0542 12.6205C64.0542 13.1125 64.0447 13.5288 64.0258 13.8693C63.9501 15.156 63.6379 16.2819 63.0892 17.2469C62.5594 18.2119 61.7741 18.9593 60.7334 19.4891C59.7117 20.0189 58.4439 20.2838 56.9302 20.2838ZM56.9302 17.4739C57.933 17.4739 58.7088 17.1617 59.2575 16.5373C59.8063 15.894 60.109 14.9573 60.1658 13.7274C60.1847 13.4436 60.1942 13.0746 60.1942 12.6205C60.1942 12.1664 60.1847 11.7974 60.1658 11.5136C60.109 10.3026 59.8063 9.37543 59.2575 8.73209C58.7088 8.08874 57.933 7.76707 56.9302 7.76707C55.9273 7.76707 55.1515 8.08874 54.6028 8.73209C54.054 9.37543 53.7513 10.3026 53.6945 11.5136C53.6756 11.7974 53.6661 12.1664 53.6661 12.6205C53.6661 13.0746 53.6756 13.4436 53.6945 13.7274C53.7513 14.9573 54.054 15.894 54.6028 16.5373C55.1515 17.1617 55.9273 17.4739 56.9302 17.4739Z" fill="#5DA271"/>
</svg>
